<?xml version="1.0" standalone="no"?>
<!DOCTYPE svg PUBLIC "-//W3C//DTD SVG 20010904//EN"
 "http://www.w3.org/TR/2001/REC-SVG-20010904/DTD/svg10.dtd">
<svg version="1.0" xmlns="http://www.w3.org/2000/svg"
 width="257.000000pt" height="257.000000pt" viewBox="0 0 257.000000 257.000000"
 preserveAspectRatio="xMidYMid meet">
<metadata>
Created by potrace 1.14, written by Peter Selinger 2001-2017
</metadata>
<g transform="translate(0.000000,257.000000) scale(0.100000,-0.100000)"
fill="#000000" stroke="none">
<path d="M1530 2279 c-104 -11 -200 -80 -247 -177 -24 -49 -28 -69 -28 -142 1
-72 5 -93 28 -136 14 -29 42 -69 62 -90 l36 -38 -18 -34 c-28 -52 -36 -55 -90
-36 -65 23 -202 23 -270 0 -29 -10 -55 -21 -57 -25 -2 -3 12 -33 31 -65 30
-49 39 -57 57 -51 11 4 50 9 86 12 209 16 372 -188 312 -391 -7 -28 -25 -66
-38 -85 -23 -34 -23 -35 -5 -65 11 -17 28 -46 39 -64 l19 -33 30 31 c93 95
136 277 99 416 -19 71 -63 149 -113 201 -24 24 -43 48 -43 54 0 5 11 27 25 47
l25 38 88 -3 c79 -2 94 0 147 26 33 15 77 45 97 65 39 39 94 139 85 153 -3 5
-25 8 -49 7 -59 -3 -58 -2 -58 -19 0 -28 -92 -112 -135 -124 -118 -32 -227 17
-276 124 -27 57 -24 121 7 183 53 107 159 149 280 111 40 -12 102 -72 120
-115 14 -32 17 -34 65 -34 51 0 51 0 44 28 -38 153 -187 250 -355 231z"/>
<path d="M1490 2150 c-12 -8 -9 -10 12 -10 15 0 30 5 33 10 8 13 -25 13 -45 0z"/>
<path d="M1503 2130 c-29 -3 -58 -11 -64 -17 -10 -10 -4 -11 24 -8 89 12 103
12 122 5 20 -8 45 4 45 22 0 9 -27 8 -127 -2z"/>
<path d="M1405 2080 c-3 -5 2 -10 12 -10 18 0 63 -59 63 -83 0 -7 4 -17 10
-23 6 -6 -3 -10 -28 -9 -31 0 -36 4 -34 20 7 46 6 58 -6 62 -6 3 -17 -6 -22
-19 -10 -23 -11 -23 -6 0 2 12 1 22 -4 22 -9 0 -20 -51 -20 -96 0 -49 18 -42
22 9 3 35 4 38 9 15 3 -14 0 -43 -6 -62 -16 -45 -12 -48 79 -53 145 -9 141
-10 141 12 0 17 -6 20 -35 18 -77 -4 -163 -3 -167 1 -3 2 0 13 5 23 9 16 26
19 162 21 99 2 156 0 164 -7 20 -17 46 -2 46 25 0 29 -24 41 -46 23 -16 -13
-214 -22 -214 -9 0 3 4 11 9 19 13 20 2 41 -19 41 -11 0 -22 5 -25 10 -4 6 31
10 99 10 58 0 107 -4 110 -9 8 -12 46 -2 46 13 -1 28 -17 37 -53 31 -70 -14
-227 -12 -239 2 -12 15 -44 17 -53 3z"/>
<path d="M1659 1840 c-9 -5 -69 -9 -133 -7 -111 2 -152 -6 -83 -17 64 -10 248
-13 254 -3 10 16 -20 37 -38 27z"/>
<path d="M1450 1794 c0 -2 13 -10 28 -18 39 -20 102 -31 102 -18 0 6 -9 9 -20
7 -13 -2 -20 2 -20 11 0 8 -3 14 -7 15 -67 5 -83 5 -83 3z"/>
<path d="M855 1549 c-17 -12 -47 -43 -68 -68 -177 -216 -122 -536 118 -680
121 -73 281 -83 415 -27 12 5 22 -5 39 -34 l22 -40 -32 -40 c-82 -101 -61
-257 44 -328 33 -22 97 -46 97 -36 0 18 -43 84 -64 97 -55 37 -75 138 -39 200
11 18 35 42 54 55 28 20 44 23 89 20 34 -2 66 -12 83 -23 32 -24 67 -90 67
-128 0 -35 40 -103 51 -85 35 56 15 167 -42 231 -49 57 -105 80 -182 75 l-59
-3 -55 95 c-30 52 -58 99 -62 103 -4 4 -32 -5 -62 -20 -73 -37 -189 -39 -261
-4 -157 76 -224 263 -149 415 17 34 46 77 65 94 l35 32 -36 60 c-19 33 -36 60
-37 60 -1 0 -15 -10 -31 -21z"/>
<path d="M1057 1406 c-121 -44 -182 -192 -128 -312 22 -48 87 -106 134 -121
43 -13 126 -8 169 10 104 44 161 191 116 298 -46 108 -178 165 -291 125z"/>
<path d="M1550 609 c0 -7 -3 -10 -6 -6 -11 11 -65 -15 -60 -29 3 -8 0 -11 -10
-7 -7 3 -14 0 -14 -6 0 -6 -6 -8 -14 -5 -21 8 -30 -28 -11 -43 10 -6 14 -17
10 -22 -3 -6 1 -14 9 -17 9 -3 13 -10 10 -15 -2 -5 0 -17 5 -26 27 -46 26 -46
74 -20 26 13 44 27 40 31 -7 6 12 10 36 6 9 -1 12 4 7 15 -3 9 -2 13 3 10 5
-3 12 -1 16 5 3 5 1 10 -4 10 -6 0 -10 3 -10 8 3 16 -26 72 -38 72 -7 0 -13 5
-13 11 0 6 -7 17 -15 25 -11 11 -15 12 -15 3z m-66 -79 c-6 -6 -15 -5 -24 1
-13 9 -12 10 3 5 9 -3 17 0 17 6 0 6 3 8 7 5 4 -4 2 -12 -3 -17z m107 -3 c-10
-9 -11 -8 -5 6 3 10 9 15 12 12 3 -3 0 -11 -7 -18z m-17 -53 c3 -8 2 -12 -4
-9 -6 3 -10 10 -10 16 0 14 7 11 14 -7z"/>
</g>
</svg>
